<svg width="140" height="124" viewBox="0 0 140 124" fill="none" xmlns="http://www.w3.org/2000/svg">
<path d="M70.938 4.94141L21.623 82.2802L84.539 24.9426L70.938 4.94141Z" fill="#040263"/>
<path d="M90.916 34.6143L99.239 47.6281L21.623 82.2799L90.916 34.6143Z" fill="#0A3D92"/>
<path d="M108.108 62.6514L62.783 64.034L119.42 79.1186L108.108 62.6514Z" fill="#0074B0"/>
<path d="M43.3369 90.4701V104.798H46.7599V90.4701H52.4019V104.798H56.5109V109.74H34.0339C33.7679 110.893 33.2779 111.897 32.5569 112.753C31.8359 113.615 30.9749 114.328 29.9669 114.904C28.9589 115.481 27.8529 115.909 26.6489 116.194C25.4449 116.479 24.2129 116.622 22.9529 116.622C21.5319 116.622 20.1459 116.442 18.7879 116.076C17.4299 115.716 16.2259 115.171 15.1689 114.439C14.1119 113.708 13.2579 112.796 12.6139 111.705C11.9699 110.614 11.6479 109.33 11.6479 107.855V93.7189H17.3319V107.855C17.3319 108.487 17.4929 109.045 17.8079 109.523C18.1229 110 18.5499 110.397 19.0749 110.713C19.5999 111.029 20.202 111.271 20.874 111.432C21.5459 111.593 22.2389 111.674 22.9529 111.674C23.6459 111.674 24.3319 111.593 25.0039 111.432C25.6759 111.271 26.2779 111.029 26.8029 110.713C27.3279 110.397 27.7549 110 28.0769 109.523C28.3989 109.045 28.5669 108.487 28.5669 107.855V90.4639H34.2509V104.792H37.6739V90.4639H43.3369V90.4701Z" fill="#040263"/>
<path d="M54.6418 104.799H65.4358V109.74H54.6418V104.799Z" fill="#040263"/>
<path d="M73.3389 83.5693V104.798H77.4479V109.74H63.5669V104.798H67.6759V83.5693H73.3389Z" fill="#040263"/>
<path d="M75.5789 104.799H86.3729V109.74H75.5789V104.799Z" fill="#040263"/>
<path d="M84.511 104.799H95.305V109.74H84.511V104.799Z" fill="#040263"/>
<path d="M103.229 83.5697V92.9131C103.88 92.5535 104.559 92.2187 105.273 91.9149C105.987 91.6111 106.715 91.3507 107.457 91.1399C108.206 90.9291 108.955 90.7617 109.711 90.6439C110.467 90.5261 111.209 90.4703 111.93 90.4703C113.218 90.4703 114.436 90.6315 115.584 90.9539C116.732 91.2763 117.733 91.7971 118.58 92.5163C119.434 93.2355 120.106 94.1655 120.61 95.3063C121.114 96.4471 121.366 97.8483 121.366 99.5037V103.36C121.366 104.24 121.17 105.065 120.778 105.84C120.386 106.615 119.854 107.291 119.189 107.867C118.524 108.444 117.74 108.897 116.844 109.231C115.948 109.566 114.989 109.734 113.967 109.734H93.4219V104.792H97.5309V83.5635H103.229V83.5697ZM111.937 95.4117C111.286 95.4117 110.621 95.4737 109.935 95.6039C109.256 95.7341 108.591 95.9077 107.947 96.1247C107.303 96.3417 106.694 96.6083 106.127 96.9121C105.56 97.2159 105.056 97.5445 104.629 97.8917C104.202 98.2389 103.859 98.6047 103.607 98.9891C103.355 99.3735 103.229 99.7579 103.229 100.142V104.792H113.974C114.45 104.792 114.849 104.656 115.185 104.377C115.521 104.098 115.682 103.757 115.682 103.36V99.5037C115.682 98.7535 115.584 98.1149 115.381 97.5941C115.178 97.0733 114.912 96.6455 114.569 96.3231C114.226 96.0007 113.827 95.7651 113.372 95.6225C112.917 95.4861 112.441 95.4117 111.937 95.4117Z" fill="#040263"/>
<path d="M131.698 83.5693V109.74H126.035V83.5693H131.698Z" fill="#040263"/>
<path d="M21.273 87.4199C20.314 87.4199 19.516 88.0213 19.334 88.8211H18.095C17.661 88.8211 17.304 89.1311 17.304 89.5093V97.7863C17.787 97.7863 18.179 97.4391 18.179 97.0113V89.5217H19.327C19.509 90.3277 20.307 90.9353 21.273 90.9353C22.372 90.9353 23.261 90.1479 23.261 89.1745C23.261 88.2073 22.372 87.4199 21.273 87.4199ZM21.455 89.8503C20.888 89.9619 20.391 89.5279 20.517 89.0257C20.58 88.7715 20.811 88.5669 21.098 88.5111C21.665 88.3995 22.162 88.8397 22.036 89.3419C21.966 89.5899 21.742 89.7945 21.455 89.8503Z" fill="#040263"/>
<path d="M10.836 88.8216H9.56202C9.36602 87.9722 8.47002 87.346 7.42702 87.4328C6.46102 87.5134 5.68402 88.2326 5.63502 89.0944C5.57902 90.105 6.48902 90.942 7.61602 90.942C8.58202 90.942 9.38702 90.3344 9.56202 89.5284H10.752V97.0181C10.752 97.4459 11.144 97.7992 11.634 97.7992V89.5284C11.634 89.1316 11.277 88.8216 10.836 88.8216ZM7.79802 89.8508C7.23102 89.9624 6.73402 89.5284 6.86002 89.0262C6.92302 88.772 7.15402 88.5674 7.44102 88.5116C8.00802 88.4 8.50502 88.8402 8.37902 89.3424C8.31602 89.5904 8.08502 89.795 7.79802 89.8508Z" fill="#0074B0"/>
<path d="M14.469 82.5469C13.37 82.5469 12.488 83.3343 12.488 84.3077C12.488 85.1447 13.146 85.8453 14.035 86.0251V93.7255H14.91V86.0251C15.792 85.8453 16.457 85.1447 16.457 84.3077C16.45 83.3343 15.561 82.5469 14.469 82.5469ZM14.469 84.9897C14.042 84.9897 13.692 84.6797 13.692 84.3015C13.692 83.9233 14.042 83.6133 14.469 83.6133C14.896 83.6133 15.246 83.9233 15.246 84.3015C15.246 84.6859 14.896 84.9897 14.469 84.9897Z" fill="#0A3D92"/>
<path d="M104.944 89.2121L106.967 88.4743C107.576 88.2511 108.388 88.6417 108.976 89.4353L110.6 91.6301L104.692 93.7753L104.237 90.9605C104.104 90.1111 104.377 89.4167 104.944 89.2121Z" fill="#040263"/>
<path d="M116.074 88.5982L118.013 89.491C118.601 89.7576 118.804 90.5326 118.517 91.4068L117.733 93.8248L112.063 91.2208L114.128 89.1996C114.772 88.5858 115.528 88.3502 116.074 88.5982Z" fill="#040263"/>
<path d="M123.928 95.7532L124.306 97.6628C124.418 98.2393 123.781 98.8594 122.731 99.2066L119.812 100.168L118.713 94.5938L122.073 94.7797C123.095 94.8355 123.823 95.22 123.928 95.7532Z" fill="#040263"/>
<path d="M122.647 107.409L121.219 108.879C120.785 109.319 119.854 109.288 118.902 108.798L116.27 107.446L120.442 103.162L122.353 105.537C122.927 106.262 123.046 107 122.647 107.409Z" fill="#040263"/>
<path d="M39.9726 111.998V114.403C39.9726 114.57 39.9371 114.727 39.866 114.874C39.7948 115.02 39.6979 115.148 39.5748 115.257C39.4518 115.366 39.3082 115.452 39.1442 115.515C38.9801 115.578 38.8038 115.609 38.6151 115.609H36.8186C36.5587 115.609 36.3154 115.566 36.0885 115.479C35.8615 115.391 35.664 115.273 35.4958 115.124C35.3276 114.975 35.1943 114.801 35.0959 114.601C34.9975 114.401 34.9482 114.188 34.9482 113.96V112.609H35.9982V113.96C35.9982 114.059 36.0194 114.153 36.0618 114.242C36.1042 114.33 36.1623 114.407 36.2361 114.472C36.3099 114.538 36.3967 114.589 36.4966 114.627C36.5964 114.664 36.7037 114.683 36.8186 114.683H38.6151C38.7026 114.683 38.7764 114.656 38.8365 114.601C38.8966 114.547 38.9268 114.481 38.9268 114.403V111.998H39.9726ZM36.3018 111.177C36.3018 111.112 36.3161 111.051 36.3448 110.994C36.3735 110.937 36.4118 110.887 36.4597 110.845C36.5075 110.803 36.5636 110.769 36.6278 110.743C36.692 110.718 36.7611 110.705 36.835 110.705C36.9088 110.705 36.9778 110.718 37.0421 110.743C37.1063 110.769 37.1624 110.803 37.2102 110.845C37.258 110.887 37.2957 110.937 37.323 110.994C37.3503 111.051 37.364 111.112 37.364 111.177C37.364 111.243 37.3503 111.304 37.323 111.361C37.2956 111.418 37.258 111.467 37.2102 111.51C37.1623 111.552 37.1063 111.585 37.0421 111.61C36.9778 111.634 36.9088 111.646 36.835 111.646C36.7611 111.646 36.692 111.634 36.6278 111.61C36.5636 111.585 36.5074 111.552 36.4597 111.51C36.4118 111.467 36.3736 111.418 36.3448 111.361C36.3161 111.304 36.3018 111.243 36.3018 111.177ZM37.5651 111.177C37.5651 111.112 37.5794 111.051 37.6081 110.994C37.6368 110.937 37.6751 110.887 37.723 110.845C37.7708 110.803 37.8269 110.769 37.8911 110.743C37.9553 110.718 38.0244 110.705 38.0982 110.705C38.1721 110.705 38.2403 110.718 38.3033 110.743C38.3662 110.769 38.4216 110.803 38.4695 110.845C38.5173 110.887 38.5549 110.937 38.5822 110.994C38.6095 111.051 38.6232 111.112 38.6232 111.177C38.6232 111.243 38.6095 111.304 38.5822 111.361C38.5549 111.418 38.5172 111.467 38.4695 111.51C38.4216 111.552 38.3662 111.585 38.3033 111.61C38.2404 111.634 38.1721 111.646 38.0982 111.646C38.0244 111.646 37.9553 111.634 37.8911 111.61C37.8269 111.585 37.7707 111.552 37.723 111.51C37.6751 111.467 37.6369 111.418 37.6081 111.361C37.5794 111.304 37.5651 111.243 37.5651 111.177Z" fill="#040263"/>
<path d="M41.8841 110.705V114.407C41.8841 114.484 41.9148 114.55 41.9763 114.603C42.0378 114.656 42.1123 114.683 42.1998 114.683H42.7084V115.609H42.1998C42.0112 115.609 41.8341 115.578 41.6687 115.515C41.5032 115.452 41.359 115.366 41.2359 115.257C41.1129 115.148 41.0151 115.02 40.9427 114.874C40.8702 114.727 40.834 114.572 40.834 114.407V110.705H41.8841Z" fill="#040263"/>
<path d="M42.3638 114.683H44.3572V115.609H42.3638V114.683Z" fill="#040263"/>
<path d="M46.3259 111.998V114.403C46.3259 114.57 46.2904 114.727 46.2193 114.874C46.1481 115.02 46.0512 115.148 45.9281 115.257C45.805 115.366 45.6608 115.452 45.4954 115.515C45.3299 115.578 45.1543 115.609 44.9683 115.609H44.0127V114.683H44.9683C45.053 114.683 45.1263 114.656 45.1878 114.601C45.2493 114.547 45.28 114.481 45.28 114.403V111.998L46.3259 111.998ZM45.2677 111.177C45.2677 111.112 45.2814 111.051 45.3087 110.994C45.336 110.937 45.3737 110.887 45.4215 110.845C45.4693 110.803 45.5254 110.769 45.5897 110.743C45.6538 110.718 45.7229 110.705 45.7968 110.705C45.8706 110.705 45.9397 110.718 46.0039 110.743C46.0681 110.769 46.1242 110.803 46.1721 110.845C46.2199 110.887 46.2575 110.937 46.2848 110.994C46.3121 111.051 46.3258 111.112 46.3258 111.177C46.3258 111.243 46.3121 111.304 46.2848 111.361C46.2575 111.418 46.2198 111.467 46.1721 111.51C46.1242 111.552 46.0681 111.585 46.0039 111.61C45.9397 111.634 45.8706 111.646 45.7968 111.646C45.7229 111.646 45.6538 111.634 45.5897 111.61C45.5254 111.585 45.4693 111.552 45.4215 111.51C45.3736 111.467 45.336 111.418 45.3087 111.361C45.2814 111.304 45.2677 111.243 45.2677 111.177Z" fill="#040263"/>
<path d="M48.2373 110.705V114.407C48.2373 114.484 48.2681 114.55 48.3296 114.603C48.3911 114.656 48.4655 114.683 48.5531 114.683H49.0617V115.609H48.5531C48.3644 115.609 48.1873 115.578 48.0219 115.515C47.8565 115.452 47.7123 115.366 47.5892 115.257C47.4661 115.148 47.3683 115.02 47.296 114.874C47.2235 114.727 47.1873 114.572 47.1873 114.407V110.705H48.2373Z" fill="#040263"/>
<path d="M48.7173 114.683H50.7107V115.609H48.7173V114.683Z" fill="#040263"/>
<path d="M50.366 116.437C50.366 116.372 50.3797 116.311 50.407 116.254C50.4344 116.197 50.472 116.147 50.5198 116.105C50.5676 116.063 50.6236 116.029 50.6879 116.005C50.7521 115.981 50.8212 115.969 50.895 115.969C50.9689 115.969 51.0379 115.981 51.1022 116.005C51.1663 116.029 51.2225 116.063 51.2703 116.105C51.3181 116.147 51.3564 116.197 51.3852 116.254C51.4139 116.311 51.4282 116.372 51.4282 116.437C51.4282 116.503 51.4139 116.564 51.3852 116.621C51.3565 116.678 51.3181 116.727 51.2703 116.77C51.2224 116.812 51.1663 116.845 51.1022 116.87C51.0379 116.894 50.9689 116.906 50.895 116.906C50.8212 116.906 50.7521 116.894 50.6879 116.87C50.6236 116.845 50.5675 116.812 50.5198 116.77C50.4719 116.727 50.4343 116.678 50.407 116.621C50.3797 116.564 50.366 116.503 50.366 116.437ZM52.6956 111.998V114.683H53.4585V115.609H50.3823V114.683H51.6497V111.998H52.6956ZM51.6293 116.437C51.6293 116.372 51.6429 116.311 51.6703 116.254C51.6976 116.197 51.7352 116.147 51.783 116.105C51.8309 116.063 51.8869 116.029 51.9512 116.005C52.0154 115.981 52.0845 115.969 52.1583 115.969C52.2322 115.969 52.3012 115.981 52.3654 116.005C52.4296 116.029 52.4858 116.063 52.5336 116.105C52.5814 116.147 52.6191 116.197 52.6464 116.254C52.6737 116.311 52.6874 116.372 52.6874 116.437C52.6874 116.503 52.6737 116.564 52.6464 116.621C52.619 116.678 52.5813 116.727 52.5336 116.77C52.4857 116.812 52.4296 116.845 52.3654 116.87C52.3012 116.894 52.2322 116.906 52.1583 116.906C52.0845 116.906 52.0154 116.894 51.9512 116.87C51.8869 116.845 51.8308 116.812 51.783 116.77C51.7352 116.727 51.6975 116.678 51.6703 116.621C51.6429 116.564 51.6293 116.503 51.6293 116.437Z" fill="#040263"/>
<path d="M53.114 114.683H55.1074V115.609H53.114V114.683Z" fill="#040263"/>
<path d="M57.0762 111.998V114.683H57.8391V115.609H54.7629V114.683H56.0303V111.998H57.0762ZM55.7309 116.426C55.7309 116.361 55.7445 116.301 55.7719 116.245C55.7992 116.189 55.8369 116.14 55.8847 116.098C55.9325 116.055 55.9886 116.022 56.0528 115.998C56.117 115.974 56.1861 115.961 56.26 115.961C56.3338 115.961 56.4028 115.974 56.4671 115.998C56.5313 116.022 56.5874 116.055 56.6352 116.098C56.683 116.14 56.7207 116.189 56.748 116.245C56.7753 116.3 56.789 116.361 56.789 116.426C56.789 116.492 56.7753 116.553 56.748 116.61C56.7206 116.667 56.683 116.716 56.6352 116.759C56.5874 116.801 56.5313 116.835 56.4671 116.861C56.4028 116.886 56.3338 116.899 56.26 116.899C56.1861 116.899 56.117 116.886 56.0528 116.861C55.9886 116.835 55.9324 116.801 55.8847 116.759C55.8368 116.716 55.7991 116.667 55.7719 116.61C55.7446 116.553 55.7309 116.492 55.7309 116.426Z" fill="#040263"/>
<path d="M57.4946 114.683H59.488V115.609H57.4946V114.683Z" fill="#040263"/>
<path d="M59.1433 114.683H61.1367V115.609H59.1433V114.683Z" fill="#040263"/>
<path d="M60.7922 114.683H62.7856V115.609H60.7922V114.683Z" fill="#040263"/>
<path d="M62.4409 114.683H64.4343V115.609H62.4409V114.683Z" fill="#040263"/>
<path d="M64.0898 114.683H66.0832V115.609H64.0898V114.683Z" fill="#040263"/>
<path d="M65.7388 114.683H67.7322V115.609H65.7388V114.683Z" fill="#040263"/>
<path d="M67.3875 114.683H69.3808V115.609H67.3875V114.683Z" fill="#040263"/>
<path d="M69.0364 114.683H71.0298V115.609H69.0364V114.683Z" fill="#040263"/>
<path d="M70.6851 114.683H72.6784V115.609H70.6851V114.683Z" fill="#040263"/>
<path d="M72.334 114.683H74.3274V115.609H72.334V114.683Z" fill="#040263"/>
<path d="M73.9829 114.683H75.9763V115.609H73.9829V114.683Z" fill="#040263"/>
<path d="M75.6316 114.683H77.625V115.609H75.6316V114.683Z" fill="#040263"/>
<path d="M77.2805 114.683H79.2739V115.609H77.2805V114.683Z" fill="#040263"/>
<path d="M78.9292 114.683H80.9226V115.609H78.9292V114.683Z" fill="#040263"/>
<path d="M80.5781 114.683H82.5715V115.609H80.5781V114.683Z" fill="#040263"/>
<path d="M82.2271 114.683H84.2204V115.609H82.2271V114.683Z" fill="#040263"/>
<path d="M83.8757 114.683H85.8691V115.609H83.8757V114.683Z" fill="#040263"/>
<path d="M85.5247 114.683H87.5181V115.609H85.5247V114.683Z" fill="#040263"/>
<path d="M87.1733 114.683H89.1667V115.609H87.1733V114.683Z" fill="#040263"/>
<path d="M88.8223 114.683H90.8157V115.609H88.8223V114.683Z" fill="#040263"/>
<path d="M90.4709 114.683H92.4643V115.609H90.4709V114.683Z" fill="#040263"/>
<path d="M92.1199 114.683H94.1133V115.609H92.1199V114.683Z" fill="#040263"/>
<path d="M93.7688 114.683H95.7622V115.609H93.7688V114.683Z" fill="#040263"/>
<path d="M95.4175 114.683H97.4109V115.609H95.4175V114.683Z" fill="#040263"/>
<path d="M97.0664 114.683H99.0598V115.609H97.0664V114.683Z" fill="#040263"/>
<path d="M98.7153 114.683H100.709V115.609H98.7153V114.683Z" fill="#040263"/>
<path d="M100.364 114.683H102.357V115.609H100.364V114.683Z" fill="#040263"/>
<path d="M102.013 114.683H104.006V115.609H102.013V114.683Z" fill="#040263"/>
<path d="M103.662 114.683H105.655V115.609H103.662V114.683Z" fill="#040263"/>
<path d="M105.311 114.683H107.304V115.609H105.311V114.683Z" fill="#040263"/>
<path d="M106.959 114.683H108.953V115.609H106.959V114.683Z" fill="#040263"/>
<path d="M108.608 114.683H110.602V115.609H108.608V114.683Z" fill="#040263"/>
<path d="M110.257 114.683H112.25V115.609H110.257V114.683Z" fill="#040263"/>
<path d="M111.906 114.683H113.899V115.609H111.906V114.683Z" fill="#040263"/>
<path d="M113.555 114.683H115.548V115.609H113.555V114.683Z" fill="#040263"/>
<path d="M117.078 110.705V114.407C117.078 114.572 117.042 114.727 116.971 114.874C116.9 115.02 116.803 115.148 116.678 115.257C116.554 115.366 116.409 115.452 116.243 115.515C116.078 115.578 115.901 115.609 115.712 115.609H115.204V114.683H115.712C115.802 114.683 115.878 114.656 115.94 114.603C116.001 114.55 116.032 114.484 116.032 114.407V110.705H117.078Z" fill="#040263"/>
<path d="M118.985 110.705V115.609H117.939V110.705H118.985Z" fill="#040263"/>
</svg>
